<?xml version="1.0" encoding="UTF-8"?>
<svg width="606px" height="312px" viewBox="0 0 606 312" version="1.1" xmlns="http://www.w3.org/2000/svg" xmlns:xlink="http://www.w3.org/1999/xlink">
    <title>Group</title>
    <g id="Page-1" stroke="none" stroke-width="1" fill="none" fill-rule="evenodd">
        <g id="Artboard" transform="translate(-19.000000, -34.000000)" fill="#000000" fill-rule="nonzero">
            <g id="Group" transform="translate(19.626172, 34.623047)">
                <path d="M55.3710938,121.376953 L55.3710938,117.333984 L51.328125,117.333984 C45.8789062,117.333984 42.2021484,116.630859 40.2978516,115.224609 C38.3935547,113.818359 37.2070312,111.665039 36.7382812,108.764648 C36.2695312,105.864258 36.0351562,99.7265625 36.0351562,90.3515625 L36.0351562,60.7324219 L47.1972656,60.7324219 C53.0566406,60.7324219 56.9970703,61.2744141 59.0185547,62.3583984 C61.0400391,63.4423828 62.5634766,65.4638672 63.5888672,68.4228516 C64.6142578,71.3818359 65.1269531,75.4101562 65.1269531,80.5078125 L65.1269531,80.5078125 L69.5214844,80.5078125 L69.5214844,38.4960938 L65.1269531,38.4960938 C65.1269531,45.8203125 63.9404297,50.6982422 61.5673828,53.1298828 C59.1943359,55.5615234 54.4042969,56.7773438 47.1972656,56.7773438 L47.1972656,56.7773438 L36.0351562,56.7773438 L36.0351562,6.24023438 L59.3261719,6.24023438 C66.7089844,6.24023438 71.953125,6.76757812 75.0585938,7.82226562 C78.1640625,8.87695312 81.1376953,11.5283203 83.9794922,15.7763672 C86.8212891,20.0244141 88.6523438,25.4003906 89.4726562,31.9042969 L89.4726562,31.9042969 L93.6035156,31.9042969 L92.6367188,2.19726562 L0.703125,2.19726562 L0.703125,6.24023438 L2.8125,6.24023438 C8.84765625,6.24023438 12.7587891,6.76757812 14.5458984,7.82226562 C16.3330078,8.87695312 17.5048828,10.78125 18.0615234,13.5351562 C18.6181641,16.2890625 18.8964844,22.4121094 18.8964844,31.9042969 L18.8961756,90.9222177 C18.8856768,100.555115 18.6074594,106.70767 18.0615234,109.379883 C17.5048828,112.104492 16.2451172,114.111328 14.2822266,115.400391 C12.3193359,116.689453 8.7890625,117.333984 3.69140625,117.333984 L3.69140625,117.333984 L0,117.333984 L0,121.376953 L55.3710938,121.376953 Z M197.891797,123.574219 C206.856641,123.574219 214.766797,122.167969 221.622266,119.355469 C228.477734,116.542969 233.795117,112.763672 237.574414,108.017578 C241.353711,103.271484 243.638867,98.4375 244.429883,93.515625 C245.220898,88.59375 245.616406,81.0644531 245.616406,70.9277344 L245.616406,70.9277344 L245.616406,31.2890625 C245.616406,24.0234375 245.909375,19.1308594 246.495313,16.6113281 C247.08125,14.0917969 248.67793,11.8212891 251.285352,9.79980469 C253.892773,7.77832031 257.833203,6.59179688 263.106641,6.24023438 L263.106641,6.24023438 L263.106641,2.19726562 L223.292188,2.19726562 L223.292188,6.24023438 C228.741406,6.59179688 232.725781,7.55859375 235.245313,9.140625 C237.764844,10.7226562 239.405469,12.8613281 240.167188,15.5566406 C240.928906,18.2519531 241.309766,22.96875 241.309766,29.7070312 L241.309766,29.7070312 L241.309161,71.0021942 C241.293451,79.9078766 240.971387,86.4602051 240.342969,90.6591797 C239.698438,94.9658203 237.925977,99.1552734 235.025586,103.227539 C232.125195,107.299805 227.701367,110.698242 221.754102,113.422852 C215.806836,116.147461 209.200391,117.509766 201.934766,117.509766 C192.676953,117.509766 185.264844,115.473633 179.698438,111.401367 C174.132031,107.329102 170.748242,102.568359 169.54707,97.1191406 C168.345898,91.6699219 167.745313,82.4414062 167.745313,69.4335938 L167.745313,69.4335938 L167.745654,31.3370383 C167.757258,21.7621608 168.064761,15.6817157 168.668164,13.0957031 C169.283398,10.4589844 170.499219,8.65722656 172.315625,7.69042969 C174.132031,6.72363281 177.969922,6.24023438 183.829297,6.24023438 L183.829297,6.24023438 L186.202344,6.24023438 L186.202344,2.19726562 L131.798047,2.19726562 L131.798047,6.24023438 L134.522656,6.24023438 C140.557813,6.24023438 144.468945,6.76757812 146.256055,7.82226562 C148.043164,8.87695312 149.215039,10.78125 149.77168,13.5351562 C150.32832,16.2890625 150.606641,22.4121094 150.606641,31.9042969 L150.606641,68.9941406 L150.51875,81.2109375 C150.51875,90.8203125 152.086133,98.4814453 155.220898,104.194336 C158.355664,109.907227 163.599805,114.56543 170.95332,118.168945 C178.306836,121.772461 187.286328,123.574219 197.891797,123.574219 Z M368.625391,123.574219 C384.914453,123.574219 398.303125,117.65625 408.791406,105.820312 C411.545313,109.453125 413.449609,113.642578 414.504297,118.388672 L414.504297,118.388672 L418.283594,118.388672 L418.283594,76.640625 L414.504297,76.640625 C413.801172,83.5546875 411.501367,90.7177734 407.604883,98.1298828 C403.708398,105.541992 398.420313,110.800781 391.740625,113.90625 C385.060938,117.011719 378.527734,118.564453 372.141016,118.564453 C360.187891,118.564453 350.197656,113.803711 342.170313,104.282227 C334.142969,94.7607422 330.129297,81.0644531 330.129297,63.1933594 C330.129297,44.3261719 333.806055,29.8242188 341.15957,19.6875 C348.513086,9.55078125 358.430078,4.48242188 370.910547,4.48242188 C381.105859,4.48242188 390.261133,7.6171875 398.376367,13.8867188 C406.491602,20.15625 411.867578,31.3183594 414.504297,47.3730469 L414.504297,47.3730469 L418.283594,47.3730469 L417.228906,2.19726562 L413.361719,2.19726562 C412.834375,7.52929688 411.310938,12.6855469 408.791406,17.6660156 C405.217188,13.2128906 399.811914,9.15527344 392.575586,5.49316406 C385.339258,1.83105469 377.267969,0 368.361719,0 C357.580469,0 347.678125,2.51953125 338.654688,7.55859375 C329.63125,12.5976562 322.6,20.3173828 317.560938,30.7177734 C312.521875,41.1181641 310.002344,52.2070312 310.002344,63.984375 C310.002344,81.9140625 315.466211,96.328125 326.393945,107.226562 C337.32168,118.125 351.398828,123.574219 368.625391,123.574219 Z M522.571875,121.376953 L522.571875,117.333984 L520.286719,117.333984 C514.896094,117.333984 511.248633,116.630859 509.344336,115.224609 C507.440039,113.818359 506.253516,111.665039 505.784766,108.764648 C505.316016,105.864258 505.081641,99.7265625 505.081641,90.3515625 L505.081641,90.3515625 L505.081641,68.6425781 L513.607031,61.171875 L547.269141,95.0976562 C555.765234,103.59375 560.013281,109.072266 560.013281,111.533203 C560.013281,113.173828 559.192969,114.550781 557.552344,115.664062 C555.911719,116.777344 551.751563,117.333984 545.071875,117.333984 L545.071875,117.333984 L542.698828,117.333984 L542.698828,121.376953 L604.573828,121.376953 L604.573828,117.333984 C599.066016,117.333984 594.583594,116.25 591.126563,114.082031 C587.669531,111.914062 580.843359,105.644531 570.648047,95.2734375 L570.648047,95.2734375 L525.999609,50.1855469 L547.708594,30.1464844 C556.146094,22.2363281 561.917578,17.0507812 565.023047,14.5898438 C568.128516,12.1289062 571.541602,10.1367188 575.262305,8.61328125 C578.983008,7.08984375 582.689063,6.29882812 586.380469,6.24023438 L586.380469,6.24023438 L586.380469,2.19726562 L541.468359,2.19726562 L541.468359,6.24023438 C549.905859,6.47460938 554.124609,9.0234375 554.124609,13.8867188 C554.124609,17.109375 549.905859,22.5 541.468359,30.0585938 L541.468359,30.0585938 L505.081641,62.8417969 L505.081641,31.9042969 C505.081641,22.0019531 505.389258,15.7324219 506.004492,13.0957031 C506.619727,10.4589844 507.835547,8.65722656 509.651953,7.69042969 C511.468359,6.72363281 515.30625,6.24023438 521.165625,6.24023438 L521.165625,6.24023438 L523.362891,6.24023438 L523.362891,2.19726562 L470.628516,2.19726562 L470.628516,6.24023438 C477.308203,6.24023438 481.55625,6.70898438 483.372656,7.64648438 C485.189063,8.58398438 486.404883,10.4003906 487.020117,13.0957031 C487.635352,15.7910156 487.942969,22.0605469 487.942969,31.9042969 L487.942969,31.9042969 L487.942969,90.3515625 C487.942969,100.3125 487.664648,106.655273 487.108008,109.379883 C486.551367,112.104492 485.291602,114.111328 483.328711,115.400391 C481.36582,116.689453 477.835547,117.333984 472.737891,117.333984 L472.737891,117.333984 L469.046484,117.333984 L469.046484,121.376953 L522.571875,121.376953 Z" id="FUCK"></path>
                <path d="M77.3378906,310.828125 C85.3652344,310.828125 92.4111328,309.480469 98.4755859,306.785156 C104.540039,304.089844 109.388672,300.237305 113.021484,295.227539 C116.654297,290.217773 118.866211,285.076172 119.657227,279.802734 C120.448242,274.529297 120.84375,266.853516 120.84375,256.775391 L120.84375,178.904297 C120.84375,169.001953 121.136719,162.732422 121.722656,160.095703 C122.308594,157.458984 123.509766,155.657227 125.326172,154.69043 C127.142578,153.723633 130.980469,153.240234 136.839844,153.240234 L136.839844,153.240234 L139.828125,153.240234 L139.828125,149.197266 L84.4570312,149.197266 L84.4570312,153.240234 L87.2695312,153.240234 C93.3046875,153.240234 97.2158203,153.767578 99.0029297,154.822266 C100.790039,155.876953 101.961914,157.78125 102.518555,160.535156 C103.075195,163.289062 103.353516,169.412109 103.353516,178.904297 L103.353033,257.51045 C103.335994,270.428071 102.867405,279.719184 101.947266,285.383789 C101.009766,291.155273 98.2558594,296.165039 93.6855469,300.413086 C89.1152344,304.661133 83.4902344,306.785156 76.8105469,306.785156 C73.5292969,306.785156 70.7753906,306.257812 68.5488281,305.203125 C66.3222656,304.148438 65.2089844,302.683594 65.2089844,300.808594 C65.2089844,300.105469 65.53125,299.050781 66.1757812,297.644531 C66.8789062,296.0625 67.2304687,294.539062 67.2304687,293.074219 C67.2304687,290.613281 66.3662109,288.533203 64.6376953,286.833984 C62.9091797,285.134766 60.7558594,284.285156 58.1777344,284.285156 C55.6582031,284.285156 53.5341797,285.222656 51.8056641,287.097656 C50.0771484,288.972656 49.2128906,291.287109 49.2128906,294.041016 C49.2128906,298.611328 51.6445312,302.551758 56.5078125,305.862305 C61.3710937,309.172852 68.3144531,310.828125 77.3378906,310.828125 Z M248.265625,270.574219 C267.71875,270.574219 283.407227,264.861328 295.331055,253.435547 C307.254883,242.009766 313.216797,227.068359 313.216797,208.611328 C313.216797,189.568359 306.991211,174.539062 294.540039,163.523438 C282.088867,152.507812 266.576172,147 248.001953,147 C229.603516,147 214.251953,152.566406 201.947266,163.699219 C189.642578,174.832031 183.490234,189.597656 183.490234,207.996094 C183.490234,226.863281 189.554687,242.009766 201.683594,253.435547 C213.8125,264.861328 229.339844,270.574219 248.265625,270.574219 Z M249.496094,266.179688 C234.203125,266.179688 222.733398,261.375 215.086914,251.765625 C207.44043,242.15625 203.617187,227.771484 203.617187,208.611328 C203.617187,189.744141 207.44043,175.491211 215.086914,165.852539 C222.733398,156.213867 233.734375,151.394531 248.089844,151.394531 C262.679687,151.394531 273.8125,156.331055 281.488281,166.204102 C289.164062,176.077148 293.001953,190.271484 293.001953,208.787109 C293.001953,227.830078 289.105469,242.15625 281.3125,251.765625 C273.519531,261.375 262.914062,266.179688 249.496094,266.179688 Z M358.154297,310.828125 C366.181641,310.828125 373.227539,309.480469 379.291992,306.785156 C385.356445,304.089844 390.205078,300.237305 393.837891,295.227539 C397.470703,290.217773 399.682617,285.076172 400.473633,279.802734 C401.264648,274.529297 401.660156,266.853516 401.660156,256.775391 L401.660156,256.775391 L401.660481,178.337038 C401.671533,168.762161 401.964393,162.681716 402.539062,160.095703 C403.125,157.458984 404.326172,155.657227 406.142578,154.69043 C407.958984,153.723633 411.796875,153.240234 417.65625,153.240234 L417.65625,153.240234 L420.644531,153.240234 L420.644531,149.197266 L365.273437,149.197266 L365.273437,153.240234 L368.085937,153.240234 C374.121094,153.240234 378.032227,153.767578 379.819336,154.822266 C381.606445,155.876953 382.77832,157.78125 383.334961,160.535156 C383.891602,163.289062 384.169922,169.412109 384.169922,178.904297 L384.169922,178.904297 L384.169922,256.775391 C384.169922,270.076172 383.701172,279.612305 382.763672,285.383789 C381.826172,291.155273 379.072266,296.165039 374.501953,300.413086 C369.931641,304.661133 364.306641,306.785156 357.626953,306.785156 C354.345703,306.785156 351.591797,306.257812 349.365234,305.203125 C347.138672,304.148438 346.025391,302.683594 346.025391,300.808594 C346.025391,300.105469 346.347656,299.050781 346.992187,297.644531 C347.695312,296.0625 348.046875,294.539062 348.046875,293.074219 C348.046875,290.613281 347.182617,288.533203 345.454102,286.833984 C343.725586,285.134766 341.572266,284.285156 338.994141,284.285156 C336.474609,284.285156 334.350586,285.222656 332.62207,287.097656 C330.893555,288.972656 330.029297,291.287109 330.029297,294.041016 C330.029297,298.611328 332.460937,302.551758 337.324219,305.862305 C342.1875,309.172852 349.130859,310.828125 358.154297,310.828125 Z M539.182031,270.574219 C558.635156,270.574219 574.323633,264.861328 586.247461,253.435547 C598.171289,242.009766 604.133203,227.068359 604.133203,208.611328 C604.133203,189.568359 597.907617,174.539062 585.456445,163.523438 C573.005273,152.507812 557.492578,147 538.918359,147 C520.519922,147 505.168359,152.566406 492.863672,163.699219 C480.558984,174.832031 474.406641,189.597656 474.406641,207.996094 C474.406641,226.863281 480.471094,242.009766 492.6,253.435547 C504.728906,264.861328 520.25625,270.574219 539.182031,270.574219 Z M540.4125,266.179688 C525.119531,266.179688 513.649805,261.375 506.00332,251.765625 C498.356836,242.15625 494.533594,227.771484 494.533594,208.611328 C494.533594,189.744141 498.356836,175.491211 506.00332,165.852539 C513.649805,156.213867 524.650781,151.394531 539.00625,151.394531 C553.596094,151.394531 564.728906,156.331055 572.404687,166.204102 C580.080469,176.077148 583.918359,190.271484 583.918359,208.787109 C583.918359,227.830078 580.021875,242.15625 572.228906,251.765625 C564.435937,261.375 553.830469,266.179688 540.4125,266.179688 Z" id="JOJO"></path>
            </g>
        </g>
    </g>
</svg>